<?xml version="1.0" encoding="UTF-8"?>
<svg id="Camada_1" data-name="Camada 1" xmlns="http://www.w3.org/2000/svg" viewBox="0 0 1417.32 595.7">
  <g id="Camada_1-2" data-name="Camada_1">
    <g id="_3046964795536" data-name=" 3046964795536">
      <path d="M928.42,1.21c1.26-.71,2.74-.82,4.15-1.2.21.57.62,1.69.83,2.24-5.66,15.65-8.9,32-13.1,48.05-4.3,18.09-8.79,36.13-13.02,54.23-2.79,13.25-6.79,26.21-9.69,39.45-9.44,36.86-18.17,73.91-27.66,110.77-5.02,16.64-8.34,33.75-13.07,50.48,14.58.32,29.13-.73,43.7-.85,18.35.08,36.71-.29,55.05.43,7.94-13.1,15.09-26.72,20.28-41.16-3.96,3.5-7.28,7.89-12.08,10.32-3.17,1.52-5.73,4.46-9.43,4.67-3.65.63-6.41-2.27-8.29-4.99.47-2.27,1.04-4.52,1.55-6.77.86-1.03,1.7-2.05,2.54-3.1-5.83,1.78-11.2,4.96-16.68,7.61-5.74,5.18-11.42,11.35-19.15,13.41-5.85,2.05-12.83-4.2-10.85-10.27,1.55-5.96,5.64-10.76,9.33-15.54,3.26-4.13,7.83-6.87,11.86-10.16,3.43-2.96,8.16-3.28,12.48-3.14,4.68,3.23,5.27,9.34,3.82,14.44-.45.43-1.33,1.29-1.77,1.72,3.31-.24,5.94-2.49,8.86-3.85,6.41-2.63,11.78-7.16,17.93-10.3,1.87-.26,4.13.87,5.49-1.02,1.19,1.7,1.19,3.64.65,5.56-2.74,3.03-6.17,5.21-9.34,7.71-2.98,4.31-7.55,7.69-9,12.91,9.04-4.95,16.25-12.42,23.6-19.5,2.21-1.83,4.1-4.19,6.69-5.49,2.12.59,4.27,2.38,4.51,4.67-1.03,3.39-3.21,6.31-4.6,9.56-2.41,5.6-4.38,11.42-7.14,16.87.04.54.12,1.61.16,2.13,7.52-7.91,16.8-13.79,25.09-20.82,4.56-4.52,8.86-10.07,15.25-11.98,2.34-1.22,3.71,1.74,5.09,3.11-1.43,2.33-2.91,4.73-5.22,6.28-5.43,4.6-11.44,9.6-12.86,16.97,3.06-.56,5.73-2.19,8.31-3.88,6.5-4.34,12.44-9.42,18.49-14.35,2.37-1.96,4.44-5.84,8.09-4.74,2.45,1.07,2.67,4.33,1.33,6.38-2.53,4.48-5.38,9.13-5.47,14.45,1.31.42,2.58,1.37,4.05,1.05,9.5-2.42,18.2-7.25,26.25-12.74,5.28-5.4,10-12.35,17.69-14.45,2.9-.64,5.3,1.41,6.34,3.95-2.75,5.97-7.17,11.51-13.38,14.07-2.06.82-3.58,2.46-5.25,3.85-.31,1.95-2.29,4.39-.45,6.1,2.52.17,4.68-1.71,6.98-2.54,5.66-1.95,10.51-5.56,15.72-8.45,4.45-3.13,9.08-6.06,13.16-9.67,2.94-2.45,3.91-6.92,7.8-8.24.94.46,1.88.91,2.86,1.36,2.46,6.04-3.27,10.82-5.9,15.71-1.78,3.77-4.99,7.43-4.67,11.79,4.12-1.08,8.09-3.19,11.44-5.91,5.17-4.07,10.45-8.09,14.86-13.02,2.93-3.37,6.6-6.07,9.1-9.81,1.93-2.13,3.96-4.22,6.3-5.9,1.95,1.5,3.8,3.18,5.41,5.06.96,1.74-.79,3.42-1.37,5-3.94,6.08-5.6,13.21-7.84,20.01-.67,2.51-.84,5.13-1.13,7.71,10.63-3.74,19.71-10.58,29.27-16.36,6.72-4.66,13.34-9.63,20.97-12.75,3.63-1.3,7.58-.96,11.37-.76,3.48.05,4.56,4.33,4.83,7.11-1.26,4.31-4.12,8.18-3.89,12.87-.35,1.93,1.44,3.21,3.11,3.64,8.65,1.11,17.27-.79,25.87-1.72,53.6-7.15,107.31-15.26,161.54-14.71,6.72.46,13.74-.25,20.19,2.06.33,1.18.62,2.35.94,3.55-5.01.94-10.14.36-15.19.92-24.64.42-49.14,3.17-73.66,5.16-33.57,2.66-66.86,8.18-100.39,11.3-6.31,1.06-12.78,1.01-19.14.54-5.89-.5-11.08-6.84-9.18-12.66-3.34,2.24-6.05,5.3-9.53,7.34-4.52,2.55-8.94,5.98-14.43,5.65-3.87-1.37-6.23-5.65-3.98-9.45-3.38,1.16-5.83,3.87-8.91,5.54-6.17,3.28-11.99,7.91-19.13,8.75-3.76-.55-7.21-4-6.73-7.98-.34-6.33,2.36-12.22,3.97-18.22-4.26,2.35-7.03,6.52-10.6,9.7-5.91,5.26-12.6,9.6-19.44,13.55-3.04,1.81-6.59,1.14-9.39-.74-2.81-4.6-1.18-10.11.03-14.94-6.14,5.64-13.76,9.31-21.08,13.16-3.81,1.43-7.96,3.59-12.06,2.04-2.48-.56-4.54-2.05-6.25-3.84-.32-1.87-.68-3.76-.86-5.64-7.42,5-15.98,9.73-25.24,8.97-3.33-.22-5.95-2.87-6.83-5.96-.35-2.45-.09-4.94,0-7.39-1.71,2.77-4.88,3.99-7.18,6.15-3.26,3.01-7.41,4.74-11.19,6.96-2.31,1.35-5.09,1.61-7.68,1.17-2.12-1.04-3.61-2.99-5.19-4.67.11-1.45.21-2.89.32-4.33-7.03,4.88-13.6,10.37-20.19,15.8-5.63,5.32-10.42,11.48-14.55,18.02,12.56-.76,25.14.21,37.72.12,10.61.76,21.3.84,31.83,2.44,5.29,1.37,11,2.26,15.26,5.99-.25.52-.75,1.57-1,2.08-9.29-1.9-18.7-3.59-28.21-3.6-12.93-1.15-25.94-.85-38.91-.97-6.74-.35-13.52.41-20.23-.51-11.17,17.98-19.55,37.49-30.13,55.81-10.9,19.17-23.66,37.75-40.76,51.95-4.77,4-10.85,8.29-17.4,6.47-3.09-.73-4.51-4.13-4.03-7.04.81-9.73,4.79-18.88,9.3-27.43,5.97-11.9,14.09-22.51,21.68-33.38,7.4-10.67,16.62-19.83,25.19-29.53,5.85-5.79,11.88-11.42,18.29-16.59-14.85-.75-29.72-.65-44.58-.53-14.04.38-28.06,1.07-42.11.85-3.01,11.38-5.56,22.89-8.56,34.28-2.13,8.51-4.08,17.07-6.9,25.38-1.05,4.79-3.62,9.22-3.61,14.22-.31,1.74.27,4.01-1.4,5.2-1,.64-2.06,1.12-3.1,1.66-.37-.46-1.12-1.36-1.5-1.81.91-10.29.76-20.68.1-30.99-.17-15.61-1.35-31.16-1.54-46.77-4.08-.15-8.17-.23-12.24.04-10.93,1.28-21.98.34-32.91,1.64-10.31.02-20.55,1.24-30.85,1.24-3.44,13-6.38,26.15-9.77,39.17-2.8,11.69-5.86,23.33-9.89,34.65-.55,2.62-3.46,2.67-5.53,3.18-1.27-3.93,1.66-7.56,2.38-11.34,6.11-21.44,10.96-43.21,16.28-64.85-4.52.39-9.08-.19-13.54.81-28.93,1.2-57.69,4.42-86.55,6.69-20.45,2.24-40.99,3.58-61.39,6.28-25.16,2.37-50.18,6.04-75.28,8.83-11.64,2.08-23.44,3.01-35.06,5.17-9.81,1.16-19.66,2.63-29.29,4.64-19.28,37.51-37.27,75.68-56.09,113.44-10.66,21.32-21.33,42.64-31.9,64.02-10.27,19.94-19.66,40.36-30.64,59.95-1.71,3.18-3.33,6.5-5.81,9.16-1.5.68-3.21.27-4.79.34-.56-2.83,1.67-4.94,2.89-7.22,10-17.05,18.21-35.07,27.19-52.66,13.72-27.43,27.46-54.85,41.16-82.28,16.18-31.87,31.27-64.28,47.32-96.21,1.27-2.45,2.58-4.89,4.18-7.15-.4-.1-1.2-.3-1.6-.4-5.05,1.28-10.22,1.9-15.37,2.64-21.15,3.41-42.16,7.72-63.28,11.34-16.41,3.38-33,5.79-49.36,9.42-21.3,4.55-42.57,9.2-63.83,13.91-10.74,2.13-21.16,5.56-31.91,7.61-13.94,3.94-28.12,6.99-42,11.14-25.79,7.41-51.45,15.31-76.66,24.53-26.52,9.52-53.02,20.55-75.33,38.11-5.21,4.52-10.04,9.46-14.78,14.48-1.21,1.68-4.58,1.63-4.83-.73,2.84-6.82,8.05-12.27,13.64-16.95,9.52-7.66,19.53-14.87,30.65-20.04,14.3-7.65,29.28-13.96,44.5-19.49,13.74-5,27.77-9.1,41.48-14.16,20.1-5.63,39.93-12.29,60.26-17.11,34.65-9.31,69.76-16.72,104.82-24.25,13.68-2.55,27.22-5.84,40.97-8.07,30.47-5.64,60.92-11.53,91.5-16.58,4.57-.81,9.38-.84,13.77-2.46,3.05-4.8,5.29-10.07,7.97-15.08,14.93-29.1,29.97-58.13,46.02-86.62,6.37-11.24,13.08-22.29,19.32-33.6,1.78-3.34,3.95-6.5,5.2-10.1-7.35,3.22-14.24,7.35-21.35,11.03-23.62,12.3-47.48,24.16-70.94,36.76-19.13,9.84-38.33,19.57-57.53,29.3-27.29,13.13-54.71,26.01-82.35,38.4-30.44,13.29-61.07,26.53-93.11,35.51-9.92,1.88-19.9,4.36-30.06,3.78-10.31.13-21.69-3.58-27.57-12.57-5.99-9.54-4.41-21.73-.68-31.81,9.47-23.19,26.77-41.87,43.54-60.03,16.18-16.11,32.9-31.74,50.49-46.32,36.43-31.61,76.16-59.3,117.68-83.8,47.47-29.16,97.5-54.38,149.9-73.43,24.16-7.5,48.82-16.55,74.53-14.77,6.21.13,13.27,1.87,16.73,7.53,1.49,3.42,2.46,7.44,1.04,11.05-2.52,7.67-7.36,14.25-11.69,20.97-16.79,24.01-36.76,45.91-59.91,63.93-2.07,1.49-5.15,1.04-6.74-.95,3.59-5.01,8.74-8.57,13.08-12.85,19.55-17.75,37.35-37.55,51.9-59.64,3.03-5.17,6.43-10.46,7.06-16.56-1.89-4.38-6.67-6.13-11.08-6.72-13.43-1.23-26.84,1.02-39.86,4.19-36.06,8.61-70.26,23.33-103.64,39.18-14.45,6.95-28.58,14.54-42.77,22-23.05,13.38-46.48,26.21-68.52,41.25-10.29,6.97-20.66,13.84-30.89,20.91-25.42,18.84-49.99,38.83-73.52,59.96-22.54,21-44.87,42.72-61.98,68.5-6.3,10.26-12.62,21.58-11.88,34.04.62,4.06.72,8.71,4.03,11.65,4.76,5.76,12.54,7.15,19.58,7.66,6.09,1.15,12.16-.35,18.23-.8,22.68-4.03,44.1-12.72,65.54-20.82,18.54-7.4,36.66-15.73,55.04-23.52,14.8-6.84,29.61-13.66,44.41-20.48,9.06-4.72,18.26-9.18,27.55-13.46,11.77-6.21,23.69-12.14,35.61-18.07,13.31-7.48,27.29-13.71,40.62-21.16,17.84-9.1,35.85-17.93,53.22-27.91,7.58-4.34,16.51-7.12,22.26-13.99,1.71.26,4.37-.59,5.11,1.57.79,1.26.64,2.86-.27,4.02-6.86,13.18-14.85,25.75-22,38.77-15.54,25.79-29.33,52.57-43.51,79.11-5.45,11.18-11.43,22.09-16.74,33.33,21.88-4.03,43.99-6.56,65.99-9.85,13.29-1.63,26.61-2.87,39.84-5.02,34.51-3.87,69.06-7.6,103.61-10.68,4.72-.86,9.58.02,14.25-1.22,15.25-1.09,30.51-2.22,45.77-3.31,3.25-.18,6.46-1.07,9.73-.62,6.68-1.22,13.49-1.59,20.24-2.25,4.1-15.23,7.01-30.72,11.3-45.89-8.22,1.87-16.43,3.84-24.51,6.28-6.32,1.56-12.78,4.34-19.37,2.44-1.71-.99-2.91-2.56-4.19-3.99-.3-1.3-.66-2.58-1.03-3.85,1.33-4.64,3.46-8.97,5.79-13.18-5,2.99-9.95,6.06-14.55,9.63-5.48,4.88-9.67,11.47-16.34,14.85-1.39-1.56-3.85-2.9-2.75-5.36,2.04-4.98,5.47-9.23,8.81-13.4-5.13,1.96-9.85,4.88-15.17,6.33-4.16,3.09-6.74,7.97-11.36,10.53-4.41,2.83-11.28,5.24-15.3.54-3.4-2.92-2.75-7.64-1.4-11.42-4.54,2.87-9.41,5.1-14.1,7.68-5.87,2.59-11.34,6.12-17.53,7.96-2.31.1-5.17.76-6.93-1.17-1.19-1.39-2.32-3.05-2.47-4.9,1.21-4.47,3.59-8.48,5.89-12.45-11.46,6.92-21.61,16.32-34.44,20.71-4.09,1.6-8.89-.42-11.1-4.12.1-3-.15-6.02.24-9,.65-1.97,1.86-3.69,2.74-5.56-2.19,1.14-3.82,3.04-5.43,4.86-6.22,6.31-12.88,12.61-21.17,16.04-3.03,1.49-6.19-.03-8.78-1.64-.44-.9-.87-1.79-1.32-2.67-.04-9.41,5.57-17.32,8.94-25.73-5.35,4.19-11.7,7.23-16.1,12.53-1.35,1.67-3.43,2.42-5.2,3.51-1.08-1.12-1.58-2.54-1.96-3.99-5.87,4.86-10.85,10.86-17.43,14.79-1.4.14-3.09-.71-3.46-2.11.46-2.71,3.33-3.62,4.83-5.61,4.56-5.78,10.38-10.34,15.84-15.21,2.86-2.32,5.74-4.63,9.14-6.13.25.6.77,1.82,1.03,2.42-.36,1.42-.6,2.87-.75,4.33.15-.45.47-1.35.63-1.79,2.44-1.36,4.54-3.22,6.57-5.12,3.41-2.6,7.13-4.81,10.87-6.9,2.82.13,7.46,2.61,5.31,5.96-4.35,9.22-10.32,18-11.85,28.29,3.14-.69,5.58-2.91,8.16-4.71,8.44-7.18,16.71-14.56,24.45-22.49,4.24-3.1,6.8-7.83,10.87-11.11,4.04-5.11,6.95-10.98,10.26-16.56,5.82-10.23,12.22-20.14,19.41-29.47,6.14-6.11,11.64-13.6,20.07-16.69,2.19-1.2,4.67.15,5.86,2.08,1.72,3.84-.28,7.94-2.04,11.38-5.02,10.65-13.25,19.23-20.79,28.1-7.6,8.48-15.96,16.24-24.82,23.41-7.13,6.76-12.29,15.29-16.32,24.18-1.49,2.72-2.07,5.99-1.02,8.98,10.14-1.77,18.34-8.46,26.82-13.82,5.48-3.87,10.73-8.07,16.43-11.63,5.35-3.4,7.57-9.72,12.08-13.97,4.05-4.2,7.08-9.31,11.56-13.12,2.56-3.11,7.43.61,6.66,4.07-2.48,6.19-8.34,9.89-12.34,14.95-2.5,5.6-8.16,8.86-11.24,14.08-3.69,4.62-7.59,9.35-9.52,15.01.07.34.23,1.01.3,1.35,5.82-.21,10.72-3.79,15.88-6.08,6.27-2.75,11.77-6.93,17.87-10.01,7.46-3.97,11.15-12.55,19.06-15.89,1.51-.36,3-.78,4.46-1.34,4.91.51,8.5,5.18,8.13,10.03-.17,2.19.15,5.07-1.94,6.47.9.13,1.8.27,2.72.43,6.45-2.06,12.96-4.39,18.09-9.01,2.72-2.61,5.98.2,7.91,2.35,4.78-2.86,9.28-6.92,15.06-7.42,2.56,1.75,2.53,5.58,1.49,8.23-1.62,5.7-6.26,10.52-5.59,16.78,7.24.4,13.98-2.71,20.93-4.2,7.31-1.7,14.53-3.93,21.97-4.94,8.56-34.39,17.09-68.79,25.58-103.2,4.57-18.22,9.89-36.24,14-54.56,3.41-13.65,6.96-27.24,10.18-40.94,2.8-10.48,5.12-21.08,8.07-31.53,1.25-3.48,2.29-7.05,2.75-10.74.07-2.52,2.02-4.31,3.24-6.34,1.45-.38,2.89-.73,4.37-1.07,1.21,2.85-.73,5.54-1.35,8.28-1.04,3.25-.73,6.71-.85,10.06.26,14.42.51,28.84,1.32,43.24.31,4.88-.11,9.8.66,14.65.13,16.91,1.62,33.82,1.65,50.75,1.05,14.92.7,29.89,1.63,44.82.1,13.3,1.26,26.57,1.15,39.89.28,9.22.93,18.43,1,27.65,3.54-.06,7.08.41,10.5,1.36,1.79.04,2.53,3.34.06,2.98-3.41.44-6.86.57-10.28.81-.23,6.37.36,12.73.46,19.1-.62,11.17-.66,22.36-.42,33.54,5.38.08,10.75-.45,16.13-.54,9.12-39.81,19.6-79.27,29.16-118.99,3.34-12.33,6.01-24.84,9.27-37.2,4.81-19.94,10.78-39.6,15.22-59.64,4.49-17.26,8.63-34.6,12.98-51.89.92-4.03,2.04-8,3.02-12.02,1.47-6.46,3.8-12.67,5.55-19.06.71-1.88,1.17-4,2.53-5.54M814.53,68.17c-6.37,24.84-11.69,49.93-18.23,74.71-6.22,24.95-12.35,49.93-18.62,74.87-3.1,12.67-6,25.43-9.6,37.96,10.79-2.38,21.79-3.42,32.67-5.26,8.44-1.4,16.99-2.11,25.55-1.82-.35-4.99.17-10.06-.68-14.99.1-.74.31-2.22.41-2.97-1.38-8.47-.17-17.2-1.34-25.73-.55-10.05-.21-20.13-.8-30.17-1.14-9.86-.09-19.88-1.27-29.73-.27-7.68-.28-15.36-.12-23.02-.31-5.35,1.38-10.62.68-15.97-.41-22.02-1.8-44.03-1.84-66.06-2.17,9.42-4.75,18.75-6.81,28.2M623.64,192.11c-3.22,3.11-5.75,6.82-8.88,10.01-6.91,9.15-12.26,19.35-19.03,28.61,1.64-.43,2.52-1.9,3.47-3.17,4.64-3.65,8.65-8.01,12.56-12.4,8.8-9.76,17.53-20.11,22.63-32.34-4.52,1.8-7.43,5.93-10.75,9.29M665.75,255.74c-.19,2.49,3.13,4.2,4.76,2.14,2.74-3.44,5.51-8.98,2-12.83-3.5,2.28-8.61,5.87-6.76,10.69M1194.12,255.87c-2.32,1.73-5.21,2.68-7.18,4.88-3.44,3.57-7.44,6.91-9.3,11.65,9.53-4.06,18.59-10.92,23.29-20.3-2.43.96-4.72,2.23-6.81,3.78M925.69,265.96c.71.17,2.11.51,2.82.68,4.31-3.26,7.82-9.17,6.11-14.61-6.17,1.29-9.33,8.06-8.93,13.93M1075.25,259.78c2.48-2.22,5.54-4.06,7.07-7.14-3.12,1.49-4.97,4.56-7.07,7.14M805.77,255.87c-5.2,1.12-10.59.68-15.76,1.84-7.88.99-15.67,2.44-23.36,4.41-4.61,15.69-8.16,31.66-12.19,47.5,4.51-.32,9.03-.16,13.55-.35,7.87-1.23,15.85-.58,23.74-1.72,12.23-.22,24.45-1.29,36.69-1.2-.06-4.95-.13-9.89-.52-14.82-1.07-10.96-.15-22.04-1.44-32.98-.07-1.62-.05-3.22-.03-4.83-6.85,1.17-13.85.82-20.68,2.12M659.17,257.73c-1.59,2.59-3.39,5.1-4.54,7.94-.67,1.78-.77,4.72,1.69,5.1,4.37-.81,7.39-4.36,10.59-7.13-1.46-.1-2.91-.22-4.35-.35-1.7-1.41-2.26-3.72-3.39-5.55M909.68,277.85c5.59,2.56,10.16-3.33,14.6-5.9,1-1.62-1.78-1.25-2.59-1.82-2.08-1.9-2.53-4.65-2.78-7.32-3.5,4.73-7.96,9.08-9.22,15.05M945.04,315.11c-12.78,11.68-25.33,23.71-36.29,37.15-8.77,11.07-16.61,22.83-23.97,34.88-4.81,8.82-9.87,17.74-11.74,27.74-.75,1.84.24,3.69.78,5.44,1.67-.19,3.45-.19,4.95-1.11,10.04-4.67,16.65-13.92,24.01-21.8,15.61-18.83,26.71-40.76,37.41-62.61,3.76-7.9,8.19-15.47,11.79-23.44-2.73.25-4.96,2-6.94,3.74M835.19,312.24c-.36,17.27,1.72,34.52,1.03,51.79,1.3-1.83,1.18-4.17,1.6-6.27,3.98-15.32,7.47-30.75,11.42-46.07-4.7.17-9.37.35-14.05.55h0Z" fill="rgba(254, 254, 254, .9)"/>
      <path d="M1128.29,219.1c2.87-2.48,8.36,1.71,5.88,5-2.68,4.83-6.59,12.67-13.39,9.96.11-1.32.24-2.62.4-3.93,1.69-4.04,3.8-8.07,7.11-11.03h0Z" fill="rgba(254, 254, 254, .9)"/>
      <path d="M549.07,230.62c3.04,0,7.39,3.33,4.99,6.55-1.76,3.12-6.61,1.58-7.71-1.4.98-1.69,1.87-3.41,2.72-5.16h0Z" fill="rgba(254, 254, 254, .9)"/>
    </g>
  </g>
</svg>